<mxfile host="app.diagrams.net" modified="2021-11-12T00:02:35.012Z" agent="5.0 (Windows NT 10.0; Win64; x64) AppleWebKit/537.36 (KHTML, like Gecko) Chrome/95.0.4638.54 Safari/537.36" etag="wkxW57QrPKJITQ6y_LJS" version="15.7.1" type="github">
  <diagram id="ThVFui21h-BZNCbFm8Fo" name="Page-1">
    <mxGraphModel dx="1153" dy="684" grid="1" gridSize="10" guides="1" tooltips="1" connect="1" arrows="1" fold="1" page="1" pageScale="1" pageWidth="827" pageHeight="1169" math="0" shadow="0">
      <root>
        <mxCell id="0" />
        <mxCell id="1" parent="0" />
        <mxCell id="7juRK5ru3YT_dS-g1AMM-1" value="Reservation" style="shape=umlFrame;whiteSpace=wrap;html=1;width=80;height=30;" parent="1" vertex="1">
          <mxGeometry x="40" y="40" width="770" height="460" as="geometry" />
        </mxCell>
        <mxCell id="hXyx2toRVHopzI-IMZI4-6" style="edgeStyle=none;rounded=0;orthogonalLoop=1;jettySize=auto;html=1;exitX=0.5;exitY=1;exitDx=0;exitDy=0;entryX=0.5;entryY=0;entryDx=0;entryDy=0;" edge="1" parent="1" source="hXyx2toRVHopzI-IMZI4-1" target="hXyx2toRVHopzI-IMZI4-5">
          <mxGeometry relative="1" as="geometry" />
        </mxCell>
        <mxCell id="hXyx2toRVHopzI-IMZI4-1" value="Search For Room" style="rounded=1;whiteSpace=wrap;html=1;" vertex="1" parent="1">
          <mxGeometry x="240" y="55" width="120" height="60" as="geometry" />
        </mxCell>
        <mxCell id="hXyx2toRVHopzI-IMZI4-2" value="" style="ellipse;html=1;shape=endState;fillColor=#000000;strokeColor=#ff0000;" vertex="1" parent="1">
          <mxGeometry x="740" y="440" width="30" height="30" as="geometry" />
        </mxCell>
        <mxCell id="hXyx2toRVHopzI-IMZI4-3" value="" style="ellipse;html=1;shape=startState;fillColor=#000000;strokeColor=#ff0000;" vertex="1" parent="1">
          <mxGeometry x="175" y="70" width="30" height="30" as="geometry" />
        </mxCell>
        <mxCell id="hXyx2toRVHopzI-IMZI4-4" value="" style="edgeStyle=orthogonalEdgeStyle;html=1;verticalAlign=bottom;endArrow=open;endSize=8;strokeColor=#ff0000;rounded=0;entryX=0;entryY=0.5;entryDx=0;entryDy=0;" edge="1" source="hXyx2toRVHopzI-IMZI4-3" parent="1" target="hXyx2toRVHopzI-IMZI4-1">
          <mxGeometry relative="1" as="geometry">
            <mxPoint x="190" y="160" as="targetPoint" />
          </mxGeometry>
        </mxCell>
        <mxCell id="hXyx2toRVHopzI-IMZI4-9" style="edgeStyle=orthogonalEdgeStyle;rounded=0;orthogonalLoop=1;jettySize=auto;html=1;entryX=0;entryY=0.5;entryDx=0;entryDy=0;" edge="1" parent="1" source="hXyx2toRVHopzI-IMZI4-5" target="hXyx2toRVHopzI-IMZI4-2">
          <mxGeometry relative="1" as="geometry">
            <Array as="points">
              <mxPoint x="180" y="180" />
              <mxPoint x="180" y="455" />
            </Array>
          </mxGeometry>
        </mxCell>
        <mxCell id="hXyx2toRVHopzI-IMZI4-10" value="[No Available Rooms]" style="edgeLabel;html=1;align=center;verticalAlign=middle;resizable=0;points=[];" vertex="1" connectable="0" parent="hXyx2toRVHopzI-IMZI4-9">
          <mxGeometry x="-0.8363" y="-2" relative="1" as="geometry">
            <mxPoint x="-32" y="32" as="offset" />
          </mxGeometry>
        </mxCell>
        <mxCell id="hXyx2toRVHopzI-IMZI4-5" value="" style="rhombus;whiteSpace=wrap;html=1;" vertex="1" parent="1">
          <mxGeometry x="290" y="170" width="20" height="20" as="geometry" />
        </mxCell>
        <mxCell id="hXyx2toRVHopzI-IMZI4-8" value="Search For Room" style="rounded=1;whiteSpace=wrap;html=1;" vertex="1" parent="1">
          <mxGeometry x="240" y="280" width="120" height="60" as="geometry" />
        </mxCell>
      </root>
    </mxGraphModel>
  </diagram>
</mxfile>
